<?xml version="1.0" standalone="no"?>
<!DOCTYPE svg PUBLIC "-//W3C//DTD SVG 20010904//EN"
 "http://www.w3.org/TR/2001/REC-SVG-20010904/DTD/svg10.dtd">
<svg version="1.0" xmlns="http://www.w3.org/2000/svg"
 width="1264.000000pt" height="720.000000pt" viewBox="0 0 1264.000000 720.000000"
 preserveAspectRatio="xMidYMid meet">

<g transform="translate(0.000000,720.000000) scale(0.100000,-0.100000)"
fill="#000000" stroke="none">
<path d="M7155 5879 c-27 -5 -70 -14 -95 -19 -25 -5 -110 -16 -190 -25 -80 -9
-167 -20 -195 -25 -64 -12 -220 -34 -415 -60 -85 -11 -200 -27 -255 -36 -55
-8 -129 -19 -165 -24 -36 -6 -123 -17 -195 -26 -71 -8 -137 -17 -145 -19 -9
-3 -47 -9 -85 -14 -387 -52 -558 -76 -640 -90 -33 -6 -121 -17 -195 -26 -74
-8 -160 -20 -190 -25 -59 -11 -225 -34 -355 -50 -94 -12 -174 -23 -310 -45
-55 -8 -138 -20 -185 -25 -105 -12 -139 -22 -198 -56 -152 -89 -241 -245 -278
-483 -21 -141 -21 -151 22 -406 28 -169 76 -287 158 -387 25 -31 46 -60 46
-65 0 -4 -46 -21 -102 -37 -214 -60 -228 -67 -228 -123 0 -23 8 -42 24 -58 25
-25 140 -85 163 -85 7 0 38 -26 70 -58 44 -43 65 -74 85 -127 42 -107 49 -154
49 -338 0 -137 -3 -174 -16 -193 -8 -13 -22 -24 -30 -24 -23 0 -286 -90 -340
-117 -70 -34 -115 -71 -115 -93 0 -19 53 -41 130 -54 63 -11 69 -21 33 -58
-110 -114 -158 -278 -158 -538 0 -210 25 -349 87 -494 21 -49 57 -113 80 -143
47 -61 132 -126 187 -143 20 -7 65 -22 101 -35 36 -13 128 -43 205 -68 375
-120 656 -211 715 -232 36 -12 139 -46 230 -75 231 -74 312 -100 335 -109 11
-5 85 -29 165 -54 174 -55 317 -102 592 -192 l206 -68 214 53 c217 53 391 95
623 149 72 17 144 35 160 40 17 5 82 21 145 36 63 15 149 36 190 47 41 11 104
26 140 33 36 7 128 29 205 49 77 19 172 42 210 51 39 9 93 22 120 30 28 8 82
22 120 30 79 18 346 82 475 115 47 12 123 30 170 40 47 10 112 26 145 35 33 9
78 21 101 25 22 5 115 27 205 50 90 23 202 50 249 61 47 10 110 26 140 35 30
8 86 21 124 30 74 15 96 27 96 52 0 26 -97 87 -195 122 -91 32 -201 68 -246
80 -56 15 -62 37 -62 220 -1 173 14 258 61 362 32 70 100 140 160 164 137 55
178 92 173 156 -2 28 -37 53 -93 67 -97 25 -97 25 -28 89 106 100 173 246 215
469 14 73 16 129 13 275 -5 165 -8 191 -32 261 -31 92 -50 132 -82 170 -26 31
-30 52 -13 63 15 9 238 64 260 64 29 0 79 31 79 49 0 46 -162 126 -390 191
-41 12 -82 28 -90 36 -12 12 -16 49 -19 172 -4 193 12 291 65 398 40 81 101
136 184 168 60 23 116 60 136 91 32 49 -11 102 -96 120 -19 4 -75 20 -125 36
-49 16 -135 42 -190 58 -55 16 -154 46 -220 66 -66 20 -140 42 -165 50 -25 7
-92 27 -150 44 -58 18 -114 35 -125 40 -11 5 -40 14 -65 20 -25 7 -94 27 -155
46 -60 18 -173 52 -250 75 -164 49 -320 96 -495 150 -69 21 -161 49 -205 61
-44 12 -84 26 -89 31 -13 10 -135 8 -201 -3z m-3548 -820 c54 -18 177 -57 273
-89 96 -31 310 -101 475 -154 165 -54 329 -108 365 -121 36 -12 133 -44 215
-70 163 -51 229 -73 260 -85 11 -5 108 -36 215 -70 399 -127 589 -192 592
-203 7 -21 -17 -812 -25 -823 -8 -13 -29 -9 -167 30 -121 35 -590 167 -720
203 -30 8 -93 26 -140 40 -83 24 -204 57 -265 72 -16 5 -61 17 -100 29 -102
31 -279 81 -360 101 -38 10 -117 32 -175 49 -150 44 -339 97 -455 128 -55 14
-113 33 -129 41 -46 24 -100 85 -130 149 -47 99 -60 179 -60 384 -1 156 2 194
18 240 24 69 77 144 113 158 71 28 87 27 200 -9z m5647 -157 c3 -5 -2 -22 -11
-38 -54 -103 -80 -323 -63 -538 6 -71 9 -131 6 -133 -2 -2 -59 -17 -127 -34
-68 -16 -167 -40 -219 -54 -52 -13 -142 -36 -200 -50 -58 -13 -121 -29 -140
-35 -19 -5 -129 -32 -245 -60 -115 -28 -223 -55 -240 -60 -16 -4 -160 -40
-320 -79 -159 -40 -306 -76 -325 -81 -19 -5 -60 -16 -90 -24 -30 -8 -93 -24
-140 -34 -47 -11 -112 -27 -145 -36 -33 -10 -96 -25 -140 -35 -44 -10 -134
-32 -200 -49 -285 -74 -537 -133 -542 -129 -9 9 18 821 28 831 5 6 39 15 76
22 38 6 102 19 143 29 41 9 118 25 170 35 212 41 547 111 580 120 19 5 76 17
125 25 50 9 128 25 175 35 47 11 155 33 240 51 85 17 184 38 220 45 36 8 112
23 170 34 58 11 134 27 170 35 36 8 110 24 165 34 55 11 134 27 175 36 41 9
129 27 195 40 219 43 420 84 455 93 49 13 48 13 54 4z m-33 -1134 c89 -31 134
-113 155 -287 14 -118 13 -126 -16 -351 -13 -92 -59 -200 -108 -254 -30 -32
-103 -67 -177 -85 -45 -11 -342 -92 -455 -125 -95 -28 -358 -102 -520 -146
-41 -12 -113 -32 -160 -45 -47 -13 -143 -40 -215 -60 -270 -75 -451 -125 -480
-134 -16 -5 -66 -19 -110 -31 -44 -12 -123 -35 -175 -51 -52 -15 -124 -35
-160 -44 -36 -9 -79 -20 -96 -24 l-31 -8 -7 161 c-18 391 -23 671 -12 682 6 6
79 32 161 59 83 26 188 60 235 75 47 16 240 79 430 141 190 61 437 142 550
179 113 37 286 94 385 125 99 31 209 67 245 80 177 63 469 154 496 154 17 1
46 -4 65 -11z m-5660 -199 c79 -17 187 -39 239 -49 52 -11 127 -26 165 -34 39
-8 149 -30 245 -50 96 -20 207 -43 245 -51 39 -9 118 -24 177 -35 59 -11 144
-28 190 -39 73 -17 219 -48 343 -71 112 -22 354 -72 386 -80 19 -6 85 -19 145
-30 60 -10 141 -26 179 -35 39 -9 144 -31 235 -50 253 -51 332 -67 371 -77
l37 -8 6 -73 c10 -124 19 -767 11 -767 -5 0 -31 7 -59 15 -28 8 -289 73 -581
145 -291 72 -552 137 -580 145 -27 8 -93 24 -145 36 -52 12 -131 32 -175 45
-44 12 -98 26 -120 29 -22 4 -74 16 -115 27 -100 26 -108 28 -390 98 -135 33
-261 64 -280 70 -56 15 -397 100 -490 122 -47 10 -95 22 -107 25 -31 7 -36 33
-23 111 25 141 -3 442 -50 550 -22 49 -24 62 -12 62 5 0 74 -14 153 -31z m49
-1194 c578 -190 715 -235 975 -319 340 -110 664 -216 965 -316 l235 -77 3 -89
c5 -147 -16 -736 -27 -747 -10 -10 -45 -1 -431 107 -69 19 -147 41 -175 49
-27 8 -126 36 -220 62 -93 26 -208 58 -255 72 -47 13 -112 31 -145 39 -33 8
-71 18 -85 23 -14 5 -50 16 -80 25 -30 9 -120 34 -200 57 -141 40 -188 53
-430 119 -63 17 -144 40 -180 51 -36 11 -110 32 -165 46 -184 46 -238 94 -295
263 -30 88 -33 107 -37 265 -6 199 3 264 51 355 44 84 93 114 176 107 30 -3
174 -44 320 -92z m5430 -103 c0 -10 -6 -26 -13 -37 -13 -20 -24 -53 -49 -145
-10 -39 -14 -355 -5 -479 2 -31 -1 -36 -28 -42 -16 -4 -66 -16 -110 -27 -44
-11 -136 -34 -205 -51 -235 -60 -845 -213 -905 -227 -186 -44 -433 -105 -565
-139 -160 -42 -613 -156 -655 -165 -22 -5 -85 -20 -140 -34 -102 -25 -244 -60
-370 -91 -38 -9 -77 -17 -85 -18 -18 -2 -18 -11 -1 463 9 265 16 358 26 368 7
8 57 22 111 32 108 19 357 70 469 95 52 11 79 13 105 5 50 -14 81 -12 136 9
109 42 317 102 439 127 72 14 202 41 290 59 88 18 239 49 335 69 96 19 218 45
270 56 52 12 133 27 180 36 47 8 91 17 99 19 8 3 113 26 235 51 122 25 257 54
301 64 108 24 135 25 135 2z"/>
</g>
</svg>
