<?xml version="1.0" standalone="no"?>
<!DOCTYPE svg PUBLIC "-//W3C//DTD SVG 20010904//EN"
 "http://www.w3.org/TR/2001/REC-SVG-20010904/DTD/svg10.dtd">
<svg version="1.0" xmlns="http://www.w3.org/2000/svg"
 width="720.000000pt" height="720.000000pt" viewBox="0 0 720.000000 720.000000"
 preserveAspectRatio="xMidYMid meet">

<g transform="translate(0.000000,720.000000) scale(0.100000,-0.100000)"
fill="#000000" stroke="none">
<path d="M3380 5810 c-206 -44 -389 -147 -535 -302 -171 -182 -264 -386 -285
-626 -35 -399 154 -774 496 -988 297 -185 697 -204 1006 -48 160 81 324 225
413 364 295 455 207 1044 -208 1385 -135 111 -313 194 -481 224 -93 17 -308
12 -406 -9z"/>
<path d="M1430 5435 c-165 -38 -317 -131 -438 -269 -67 -78 -147 -238 -167
-335 -18 -84 -21 -276 -5 -344 68 -304 292 -540 588 -618 113 -30 299 -30 406
0 332 93 554 353 597 699 12 94 11 112 -8 216 -62 335 -306 589 -631 655 -69
14 -272 12 -342 -4z"/>
<path d="M5419 5435 c-133 -27 -258 -91 -363 -187 -115 -105 -182 -208 -232
-358 -25 -78 -28 -98 -28 -235 -1 -197 28 -297 129 -455 97 -153 297 -292 482
-336 101 -25 286 -22 388 5 229 61 414 213 519 426 65 130 80 196 80 350 1
151 -15 225 -74 350 -109 228 -320 394 -568 444 -71 15 -251 12 -333 -4z"/>
<path d="M793 3921 c-316 -252 -531 -638 -594 -1066 -19 -129 -17 -373 4 -458
37 -148 107 -251 223 -327 174 -113 378 -153 856 -164 114 -3 214 -3 221 0 10
4 12 17 6 57 -29 205 11 597 90 877 85 299 277 669 444 854 30 35 19 35 -61 1
-206 -87 -425 -96 -661 -29 -148 43 -310 136 -411 238 -30 31 -58 56 -62 56
-3 0 -28 -17 -55 -39z"/>
<path d="M6291 3899 c-127 -117 -286 -204 -453 -246 -86 -22 -125 -26 -238
-26 -155 0 -241 15 -374 67 -47 19 -86 30 -86 26 0 -5 4 -11 9 -15 17 -10 147
-189 195 -269 128 -211 219 -429 281 -676 57 -228 68 -318 71 -600 l2 -255
309 1 c432 2 591 28 754 124 169 100 245 255 256 525 18 440 -132 863 -421
1190 -55 63 -193 187 -226 205 -11 6 -33 -9 -79 -51z"/>
<path d="M2524 3826 c-44 -36 -129 -115 -187 -176 -377 -393 -587 -933 -587
-1509 0 -288 60 -469 204 -615 156 -159 382 -241 776 -283 191 -20 1577 -31
1784 -14 590 49 844 232 922 662 31 173 21 465 -26 709 -77 404 -323 859 -606
1120 -76 70 -199 170 -209 170 -4 0 -42 -32 -84 -71 -108 -102 -198 -163 -338
-231 -218 -105 -471 -153 -686 -129 -317 35 -573 153 -809 370 -36 33 -68 61
-70 61 -2 0 -40 -29 -84 -64z"/>
</g>
</svg>
