<?xml version="1.0" standalone="no"?>
<!DOCTYPE svg PUBLIC "-//W3C//DTD SVG 20010904//EN"
 "http://www.w3.org/TR/2001/REC-SVG-20010904/DTD/svg10.dtd">
<svg version="1.0" xmlns="http://www.w3.org/2000/svg"
 width="720.000000pt" height="720.000000pt" viewBox="0 0 720.000000 720.000000"
 preserveAspectRatio="xMidYMid meet">

<g transform="translate(0.000000,720.000000) scale(0.100000,-0.100000)"
fill="#000000" stroke="none">
<path d="M3535 6454 c-182 -44 -205 -57 -503 -312 -29 -25 -65 -54 -80 -66
-15 -11 -94 -77 -176 -146 -82 -69 -163 -136 -180 -150 -17 -13 -101 -83 -186
-154 -85 -72 -184 -155 -220 -184 -36 -30 -89 -75 -118 -100 -29 -25 -81 -68
-116 -96 -87 -71 -205 -169 -296 -246 -144 -122 -183 -155 -244 -203 -34 -27
-86 -70 -116 -96 -30 -27 -82 -70 -115 -96 -33 -27 -62 -51 -65 -55 -3 -4 -45
-39 -93 -78 -49 -40 -112 -92 -140 -116 -78 -66 -415 -347 -457 -381 -49 -40
-210 -174 -285 -239 -56 -47 -90 -81 -129 -127 -17 -21 -22 -85 -6 -91 5 -1
22 -22 37 -45 28 -41 185 -229 260 -311 43 -46 91 -66 138 -56 40 9 66 26 156
104 122 104 238 201 299 250 32 25 108 88 171 141 258 217 376 316 419 349 25
19 47 37 50 40 3 4 37 32 75 64 39 32 94 79 124 105 30 25 82 69 116 96 34 28
84 69 111 92 72 61 306 256 419 348 54 44 107 88 119 99 11 10 41 35 66 55 25
20 47 38 50 41 5 5 316 264 419 349 24 20 49 41 55 46 6 6 52 44 101 85 50 41
122 102 161 135 39 33 82 69 95 79 13 11 49 41 78 68 30 26 63 48 73 48 10 0
50 -28 90 -62 40 -35 95 -81 123 -103 29 -22 76 -61 106 -87 30 -25 106 -90
169 -143 63 -53 136 -114 162 -136 26 -22 87 -72 135 -111 49 -40 94 -78 102
-85 15 -16 181 -153 279 -231 37 -29 82 -67 102 -85 19 -18 55 -48 80 -67 25
-19 82 -66 126 -105 119 -102 179 -153 274 -230 47 -38 87 -72 90 -75 3 -4 44
-39 93 -78 48 -39 109 -89 135 -111 26 -22 106 -88 177 -147 72 -59 159 -132
195 -163 36 -31 86 -73 112 -94 26 -21 53 -44 60 -50 7 -7 40 -35 73 -62 33
-26 125 -103 204 -169 239 -201 231 -196 298 -196 l58 0 64 68 c35 37 80 87
100 112 19 25 60 74 91 110 111 131 122 163 74 226 -30 39 -149 143 -383 334
-38 30 -92 76 -122 101 -30 26 -84 72 -121 103 -38 31 -96 80 -131 109 -34 28
-84 70 -111 92 -27 22 -68 57 -92 79 l-44 38 -2 932 c-3 1009 0 958 -57 1001
-25 19 -47 20 -471 23 -245 2 -465 0 -489 -3 -52 -8 -86 -38 -100 -91 -6 -24
-11 -203 -12 -449 -1 -408 -3 -455 -20 -455 -7 0 -422 340 -439 360 -3 3 -88
75 -190 160 -102 84 -203 170 -226 189 -154 136 -272 228 -323 252 -86 40
-244 68 -306 53z"/>
<path d="M3558 5263 c-18 -16 -39 -33 -46 -40 -7 -7 -34 -29 -60 -50 -26 -21
-63 -52 -82 -70 -20 -18 -65 -56 -102 -85 -36 -29 -112 -91 -168 -138 -136
-114 -295 -245 -405 -336 -49 -40 -127 -104 -172 -141 -45 -37 -103 -86 -130
-108 -123 -102 -228 -190 -233 -196 -3 -3 -12 -10 -22 -15 -9 -5 -34 -25 -55
-44 -21 -20 -72 -62 -113 -95 -41 -33 -129 -104 -195 -160 -151 -126 -249
-206 -330 -270 -34 -27 -105 -85 -156 -129 -52 -43 -116 -97 -144 -120 -27
-22 -63 -53 -80 -68 l-30 -26 0 -1104 0 -1103 28 -57 c16 -32 48 -75 73 -97
85 -74 35 -71 1005 -71 736 0 868 2 878 14 9 11 12 222 10 851 -1 502 2 840 8
846 5 5 237 8 574 7 l564 -3 5 -855 5 -855 872 -3 c864 -2 872 -2 928 19 66
24 122 77 156 146 l24 48 3 1095 c1 602 0 1104 -3 1116 -2 12 -59 66 -127 120
-67 54 -140 115 -162 135 -23 19 -62 51 -87 70 -25 19 -72 57 -105 85 -32 29
-135 114 -228 190 -93 77 -251 206 -350 287 -183 150 -317 260 -455 375 -42
34 -107 88 -146 119 -38 31 -88 73 -111 92 -22 20 -76 65 -120 101 -43 35 -81
67 -84 71 -3 3 -30 25 -60 48 -30 24 -73 60 -95 80 -22 20 -67 57 -100 83 -33
25 -69 54 -80 65 -70 64 -244 203 -255 203 -4 0 -23 -12 -42 -27z"/>
</g>
</svg>
