<?xml version="1.0" standalone="no"?>
<!DOCTYPE svg PUBLIC "-//W3C//DTD SVG 20010904//EN"
 "http://www.w3.org/TR/2001/REC-SVG-20010904/DTD/svg10.dtd">
<svg version="1.0" xmlns="http://www.w3.org/2000/svg"
 width="720.000000pt" height="720.000000pt" viewBox="0 0 720.000000 720.000000"
 preserveAspectRatio="xMidYMid meet">

<g transform="translate(0.000000,720.000000) scale(0.100000,-0.100000)"
fill="#000000" stroke="none">
<path d="M3487 7186 c-9 -7 -41 -16 -71 -20 -122 -14 -316 -117 -426 -226
-118 -117 -184 -221 -232 -366 -32 -97 -33 -103 -33 -274 0 -197 9 -239 85
-397 83 -170 247 -333 410 -406 94 -42 134 -57 150 -57 10 0 47 -7 82 -16 110
-28 328 -10 453 37 144 55 300 167 392 281 61 75 132 213 163 318 20 65 23 98
24 240 0 145 -3 173 -22 228 -12 34 -22 67 -22 73 0 5 -13 37 -30 70 -95 192
-256 353 -432 433 -105 48 -128 55 -180 62 -29 3 -63 13 -75 20 -30 19 -211
19 -236 0z"/>
<path d="M2034 4483 c-209 -3 -212 -4 -218 -26 -3 -12 -6 -205 -6 -428 0 -362
2 -408 16 -413 9 -3 113 -6 232 -6 320 0 400 -23 522 -149 65 -68 105 -143
119 -226 7 -38 12 -405 13 -985 3 -842 1 -932 -14 -998 -37 -159 -140 -275
-303 -340 -32 -12 -96 -17 -310 -21 l-270 -6 -3 -442 -2 -443 1789 0 1789 0 7
163 c3 89 5 288 3 442 l-3 280 -270 6 c-221 4 -278 9 -313 23 -159 62 -268
181 -304 334 -8 33 -13 507 -17 1642 l-6 1595 -1120 0 c-616 0 -1215 -1 -1331
-2z"/>
</g>
</svg>
