<?xml version="1.0" standalone="no"?>
<!DOCTYPE svg PUBLIC "-//W3C//DTD SVG 20010904//EN"
 "http://www.w3.org/TR/2001/REC-SVG-20010904/DTD/svg10.dtd">
<svg version="1.0" xmlns="http://www.w3.org/2000/svg"
 width="720.000000pt" height="752.000000pt" viewBox="0 0 720.000000 752.000000"
 preserveAspectRatio="xMidYMid meet">

<g transform="translate(0.000000,752.000000) scale(0.100000,-0.100000)"
fill="#000000" stroke="none">
<path d="M3529 7497 c-20 -12 -104 -71 -188 -132 -83 -60 -172 -124 -197 -142
-142 -101 -1916 -1391 -2174 -1581 -69 -51 -163 -120 -210 -154 -47 -34 -232
-172 -412 -306 -294 -218 -329 -248 -339 -281 -9 -32 -8 -44 10 -83 12 -25 35
-58 52 -74 l30 -29 3498 0 3497 0 31 25 c45 35 77 102 70 146 -10 57 -39 90
-158 176 -13 9 -164 118 -335 241 -171 123 -332 239 -357 258 -25 19 -99 72
-164 119 -65 46 -158 114 -208 150 -49 37 -189 138 -310 226 -121 87 -224 162
-230 167 -10 8 -567 411 -990 717 -132 95 -267 193 -300 217 -33 24 -96 70
-140 102 -44 31 -129 94 -190 138 -176 129 -216 142 -286 100z m184 -407 c62
-44 121 -86 132 -94 11 -8 52 -37 90 -65 39 -27 86 -61 105 -76 19 -15 76 -56
125 -91 162 -116 320 -231 386 -279 35 -25 73 -53 84 -61 11 -8 56 -40 100
-72 44 -33 163 -119 265 -193 224 -162 289 -208 839 -609 556 -404 674 -492
678 -506 2 -7 -18 -14 -49 -17 -70 -9 -5574 -9 -5700 0 -54 3 -98 9 -98 13 0
4 327 245 728 535 400 291 750 545 777 566 28 20 178 130 335 243 486 352 509
369 601 436 49 36 155 112 236 170 80 58 169 122 197 143 28 20 52 37 54 37 2
0 54 -36 115 -80z"/>
<path d="M2615 4420 c-299 -21 -649 -142 -701 -242 -26 -51 -33 -355 -33
-1418 0 -1029 7 -1338 31 -1398 17 -43 84 -77 133 -68 39 8 94 32 145 64 53
34 184 81 290 105 82 18 128 21 330 22 211 0 246 -2 339 -23 139 -31 241 -72
309 -123 94 -72 178 -73 272 -4 89 66 252 121 423 144 176 24 487 8 647 -34
69 -18 240 -93 240 -105 0 -4 8 -10 18 -13 9 -3 36 -13 59 -21 57 -21 94 -12
148 36 l45 40 0 1207 c0 664 -3 1290 -7 1391 l-6 184 -33 36 c-69 76 -229 141
-469 191 -129 27 -480 37 -635 19 -191 -22 -349 -63 -484 -125 l-70 -33 -51
21 c-307 125 -598 171 -940 147z m345 -310 c173 -15 301 -45 421 -97 l56 -25
6 -411 c4 -227 7 -570 7 -762 l0 -351 40 -39 c40 -39 43 -40 110 -40 65 0 72
2 102 32 l32 32 7 158 c4 87 8 433 8 769 l1 611 105 42 c164 64 245 75 560 75
299 0 381 -10 515 -61 l75 -29 0 -1142 c0 -748 -3 -1144 -10 -1150 -6 -6 -58
3 -140 25 -127 34 -135 35 -375 40 -378 8 -509 -10 -744 -101 -64 -25 -126
-46 -138 -46 -12 0 -59 16 -105 36 -287 123 -765 157 -1108 78 -175 -40 -171
-40 -178 -13 -8 34 -21 2220 -14 2251 8 32 78 60 223 89 176 35 362 45 544 29z"/>
<path d="M473 4390 c-70 -10 -98 -22 -113 -50 -25 -47 -30 -312 -30 -1520 -1
-1208 3 -1405 30 -1474 6 -16 25 -34 47 -44 34 -15 88 -17 528 -17 554 0 572
2 600 62 31 64 37 374 32 1648 -4 1235 -6 1310 -40 1356 -30 39 -65 42 -537
45 -250 1 -483 -1 -517 -6z m781 -306 c14 -6 16 -125 16 -1245 l0 -1239 -22
-5 c-13 -3 -156 -4 -318 -3 l-295 3 -3 1242 -2 1243 302 3 c167 1 304 3 305 5
1 1 8 -1 17 -4z"/>
<path d="M5783 4391 c-61 -6 -85 -19 -135 -74 -17 -18 -18 -103 -18 -1477 l0
-1457 47 -49 48 -49 515 0 c460 0 519 2 552 17 65 29 68 41 80 406 12 385 4
2400 -11 2535 -17 158 6 151 -561 153 -250 1 -483 -1 -517 -5z m505 -311 l272
0 0 -1240 0 -1240 -22 -5 c-13 -3 -151 -4 -308 -3 l-285 3 -3 1242 c-2 1176
-1 1242 15 1246 10 3 27 3 38 1 11 -2 143 -4 293 -4z"/>
<path d="M3385 960 c-2633 -4 -3266 -7 -3290 -18 -71 -30 -82 -79 -91 -382 -7
-228 5 -400 32 -452 18 -35 55 -54 124 -61 31 -4 1603 -7 3495 -7 l3440 -1 48
50 48 51 -4 365 -4 366 -44 45 -45 45 -224 2 c-124 1 -1692 0 -3485 -3z m3495
-453 l0 -164 -302 -6 c-392 -9 -5013 -9 -5716 0 l-542 6 0 159 0 158 3262 3
c1795 1 3271 3 3281 5 16 2 17 -12 17 -161z"/>
</g>
</svg>
