<?xml version="1.0" standalone="no"?>
<!DOCTYPE svg PUBLIC "-//W3C//DTD SVG 20010904//EN"
 "http://www.w3.org/TR/2001/REC-SVG-20010904/DTD/svg10.dtd">
<svg version="1.0" xmlns="http://www.w3.org/2000/svg"
 width="720.000000pt" height="720.000000pt" viewBox="0 0 720.000000 720.000000"
 preserveAspectRatio="xMidYMid meet">

<g transform="translate(0.000000,720.000000) scale(0.100000,-0.100000)"
fill="#000000" stroke="none">
<path d="M2615 5601 c-114 -52 -164 -180 -114 -291 15 -35 208 -233 849 -875
457 -457 830 -835 830 -840 0 -6 -374 -384 -831 -839 -651 -650 -836 -839
-851 -874 -43 -95 -7 -209 83 -269 52 -34 140 -43 202 -19 34 13 223 197 972
946 615 615 936 942 947 967 24 52 23 137 -2 187 -13 28 -321 342 -952 972
-811 809 -938 932 -974 942 -59 17 -113 14 -159 -7z"/>
</g>
</svg>
