<?xml version="1.0" standalone="no"?>
<!DOCTYPE svg PUBLIC "-//W3C//DTD SVG 20010904//EN"
 "http://www.w3.org/TR/2001/REC-SVG-20010904/DTD/svg10.dtd">
<svg version="1.0" xmlns="http://www.w3.org/2000/svg"
 width="720.000000pt" height="720.000000pt" viewBox="0 0 720.000000 720.000000"
 preserveAspectRatio="xMidYMid meet">

<g transform="translate(0.000000,720.000000) scale(0.100000,-0.100000)"
fill="#000000" stroke="none">
<path d="M500 6610 c-106 -10 -203 -55 -287 -133 -46 -42 -138 -162 -163 -211
-8 -16 -23 -31 -32 -34 -16 -4 -18 -19 -18 -144 0 -119 3 -143 19 -166 10 -15
49 -74 87 -131 38 -57 91 -123 117 -146 56 -49 171 -109 260 -136 60 -18 155
-19 3118 -19 l3056 0 86 34 c48 19 108 47 134 62 111 64 234 216 277 339 18
53 34 263 22 308 -8 33 -100 155 -174 231 -56 57 -129 101 -221 134 -42 15
-300 17 -3131 18 -1697 0 -3114 -2 -3150 -6z"/>
<path d="M480 4150 c-101 -27 -229 -94 -298 -156 -56 -50 -74 -79 -126 -197
-14 -31 -32 -60 -41 -63 -22 -9 -22 -235 0 -254 8 -7 15 -18 15 -24 0 -15 88
-143 154 -225 56 -69 161 -142 224 -156 17 -3 34 -11 37 -16 4 -5 1233 -9
3133 -9 2592 0 3136 3 3178 14 71 19 179 72 221 109 44 39 113 131 113 151 0
8 4 17 9 20 5 4 19 26 31 51 12 25 33 53 46 64 23 18 24 24 24 139 0 114 -1
122 -31 178 -78 146 -155 225 -305 312 -39 22 -90 45 -115 51 -48 11 -1185 18
-4284 26 -1878 5 -1911 4 -1985 -15z"/>
<path d="M565 1690 c-173 -16 -342 -107 -425 -230 -79 -116 -109 -189 -116
-281 -3 -46 -10 -99 -14 -117 -8 -30 -4 -40 36 -94 24 -33 44 -64 44 -70 0
-14 68 -119 99 -152 38 -41 117 -98 185 -131 l59 -30 3141 0 c3399 0 3182 -3
3286 52 130 70 195 137 262 271 24 50 49 87 60 90 16 4 18 17 18 138 0 78 -4
134 -10 134 -5 0 -16 16 -25 35 -9 19 -23 39 -31 46 -8 6 -14 15 -14 20 0 20
-112 160 -139 173 -15 8 -33 22 -40 30 -15 18 -118 71 -176 91 -24 8 -123 18
-245 24 -239 11 -5831 13 -5955 1z"/>
</g>
</svg>
