<?xml version="1.0" standalone="no"?>
<!DOCTYPE svg PUBLIC "-//W3C//DTD SVG 20010904//EN"
 "http://www.w3.org/TR/2001/REC-SVG-20010904/DTD/svg10.dtd">
<svg version="1.0" xmlns="http://www.w3.org/2000/svg"
 width="720.000000pt" height="720.000000pt" viewBox="0 0 720.000000 720.000000"
 preserveAspectRatio="xMidYMid meet">

<g transform="translate(0.000000,720.000000) scale(0.100000,-0.100000)"
fill="#000000" stroke="none">
<path d="M4435 4858 c-407 -408 -760 -754 -784 -770 -25 -15 -54 -28 -65 -28
-13 0 -248 229 -680 664 -731 734 -868 866 -894 866 -10 0 -51 -34 -91 -75
-40 -41 -77 -75 -81 -75 -18 0 -72 -54 -90 -91 -11 -21 -50 -67 -87 -104 l-67
-65 751 -753 c716 -717 793 -799 793 -849 0 -8 -316 -329 -701 -713 -627 -625
-839 -846 -839 -870 0 -5 25 -32 55 -62 30 -29 60 -61 67 -71 25 -33 281 -262
293 -262 7 0 334 321 726 713 393 391 732 729 755 749 44 40 107 78 128 78 7
0 297 -287 645 -637 610 -616 904 -903 926 -903 5 0 28 17 50 38 22 21 59 53
83 71 58 45 273 291 270 308 -2 7 -334 345 -739 751 -664 664 -799 807 -799
847 0 7 286 297 636 646 350 349 655 654 678 679 22 24 83 88 134 142 50 54
92 104 92 111 0 7 -28 42 -63 78 -34 35 -71 75 -82 89 -32 40 -255 240 -269
240 -6 0 -345 -334 -751 -742z"/>
</g>
</svg>
