<svg xmlns="http://www.w3.org/2000/svg" xmlns:xlink="http://www.w3.org/1999/xlink" version="1.1" width="256" height="256" viewBox="0 0 256 256" xml:space="preserve">

<defs>
</defs>
<g style="stroke: none; stroke-width: 0; stroke-dasharray: none; stroke-linecap: butt; stroke-linejoin: miter; stroke-miterlimit: 10; fill: none; fill-rule: nonzero; opacity: 1;" transform="translate(1.4065934065934016 1.4065934065934016) scale(2.81 2.81)" >
	<path d="M 53.937 38.999 c -1.973 0 -3.443 0.969 -3.443 3.301 c 0 1.757 0.969 2.977 3.337 2.977 c 2.007 0 3.37 -1.183 3.37 -3.049 C 57.201 40.112 55.981 38.999 53.937 38.999 L 53.937 38.999 z M 49.99 55.465 c -0.467 0.573 -0.932 1.182 -0.932 1.901 c 0 1.434 1.828 1.865 4.34 1.865 c 2.08 0 4.914 -0.146 4.914 -2.08 c 0 -1.15 -1.363 -1.221 -3.086 -1.329 L 49.99 55.465 L 49.99 55.465 z M 60.607 39.108 c 0.645 0.825 1.327 1.973 1.327 3.623 c 0 3.981 -3.121 6.313 -7.639 6.313 c -1.149 0 -2.189 -0.143 -2.834 -0.322 l -1.184 1.901 l 3.515 0.215 c 6.206 0.395 9.863 0.575 9.863 5.344 c 0 4.126 -3.622 6.456 -9.863 6.456 c -6.492 0 -8.967 -1.65 -8.967 -4.483 c 0 -1.615 0.718 -2.474 1.973 -3.659 c -1.184 -0.5 -1.578 -1.397 -1.578 -2.366 c 0 -0.79 0.394 -1.507 1.041 -2.189 c 0.645 -0.681 1.363 -1.363 2.223 -2.152 c -1.757 -0.861 -3.085 -2.726 -3.085 -5.38 c 0 -4.124 2.726 -6.957 8.213 -6.957 c 1.543 0 2.476 0.142 3.301 0.359 h 6.995 v 3.048 L 60.607 39.108" style="stroke: none; stroke-width: 1; stroke-dasharray: none; stroke-linecap: butt; stroke-linejoin: miter; stroke-miterlimit: 10; fill: white; fill-rule: nonzero; opacity: 1;" transform=" matrix(1 0 0 1 0 0) " stroke-linecap="round" />
	<path d="M 70.221 32.59 c -2.045 0 -3.228 -1.185 -3.228 -3.23 c 0 -2.043 1.183 -3.155 3.228 -3.155 c 2.08 0 3.264 1.113 3.264 3.155 C 73.485 31.405 72.301 32.59 70.221 32.59 z M 65.593 54.145 v -2.832 l 1.83 -0.25 c 0.502 -0.073 0.574 -0.18 0.574 -0.719 V 39.798 c 0 -0.394 -0.107 -0.646 -0.467 -0.753 l -1.937 -0.682 l 0.394 -2.904 h 7.425 v 14.884 c 0 0.575 0.035 0.646 0.574 0.719 l 1.829 0.25 v 2.832 L 65.593 54.145" style="stroke: none; stroke-width: 1; stroke-dasharray: none; stroke-linecap: butt; stroke-linejoin: miter; stroke-miterlimit: 10; fill: white; fill-rule: nonzero; opacity: 1;" transform=" matrix(1 0 0 1 0 0) " stroke-linecap="round" />
	<path d="M 90 52.755 c -1.543 0.752 -3.802 1.434 -5.848 1.434 c -4.268 0 -5.882 -1.72 -5.882 -5.775 v -9.397 c 0 -0.215 0 -0.359 -0.288 -0.359 h -2.51 v -3.192 c 3.157 -0.36 4.412 -1.938 4.806 -5.848 h 3.408 v 5.095 c 0 0.25 0 0.359 0.287 0.359 h 5.057 v 3.586 h -5.344 v 8.572 c 0 2.117 0.503 2.941 2.439 2.941 c 1.006 0 2.045 -0.25 2.906 -0.573 L 90 52.755" style="stroke: none; stroke-width: 1; stroke-dasharray: none; stroke-linecap: butt; stroke-linejoin: miter; stroke-miterlimit: 10; fill: white; fill-rule: nonzero; opacity: 1;" transform=" matrix(1 0 0 1 0 0) " stroke-linecap="round" />
	<path d="M 36.855 43.342 L 20.453 26.943 c -0.944 -0.945 -2.476 -0.945 -3.42 0 l -3.406 3.406 l 4.32 4.32 c 1.004 -0.339 2.155 -0.112 2.955 0.689 c 0.804 0.805 1.03 1.966 0.682 2.974 l 4.164 4.164 c 1.007 -0.347 2.169 -0.123 2.974 0.683 c 1.124 1.124 1.124 2.946 0 4.07 c -1.125 1.125 -2.946 1.125 -4.072 0 c -0.846 -0.846 -1.055 -2.089 -0.626 -3.13 l -3.883 -3.883 l 0 10.218 c 0.274 0.136 0.533 0.317 0.761 0.544 c 1.124 1.124 1.124 2.945 0 4.071 c -1.124 1.124 -2.947 1.124 -4.07 0 c -1.124 -1.126 -1.124 -2.947 0 -4.071 c 0.278 -0.277 0.599 -0.487 0.942 -0.628 V 40.055 c -0.343 -0.14 -0.664 -0.348 -0.943 -0.628 c -0.852 -0.851 -1.057 -2.101 -0.62 -3.147 l -4.258 -4.259 L 0.709 43.266 c -0.945 0.945 -0.945 2.477 0 3.422 l 16.4 16.399 c 0.944 0.945 2.476 0.945 3.421 0 l 16.324 -16.322 c 0.945 -0.945 0.945 -2.477 0 -3.422" style="stroke: none; stroke-width: 1; stroke-dasharray: none; stroke-linecap: butt; stroke-linejoin: miter; stroke-miterlimit: 10; fill: white; fill-rule: nonzero; opacity: 1;" transform=" matrix(1 0 0 1 0 0) " stroke-linecap="round" />
</g>
</svg>